<?xml version="1.0" encoding="UTF-8"?>
<svg id="Layer_1" xmlns="http://www.w3.org/2000/svg" version="1.1" viewBox="0 0 50.4 39.8">
  <!-- Generator: Adobe Illustrator 29.3.1, SVG Export Plug-In . SVG Version: 2.1.0 Build 151)  -->
  <defs>
    <style>
      .st0 {
        fill: #fff;
      }
    </style>
  </defs>
  <circle className="st0" cx="23.07" cy="10.37" r="4.61"/>
  <path className="st0" d="M33.98,12.82c.11-.99.62-1.34,1.23-1.34.65,0,1.14.68,1.14,1.34v4.62h.83V5.15c0-.65.53-1.18,1.18-1.18s1.18.53,1.18,1.18v8.32h.87V3.73c0-.65.53-1.18,1.18-1.18s1.18.53,1.18,1.18v9.74h.83V5.15c0-.65.53-1.18,1.18-1.18s1.18.53,1.18,1.18v9.32h.82v-5.23c0-.65.53-1.18,1.18-1.18s1.18.53,1.18,1.54v9.49c0,3.08-3.38,6.94-7.51,6.94s-7.67-3.86-7.68-7.65h0v-5.56Z"/>
  <path className="st0" d="M34.79,23.97c-1.33-1.65-2.15-3.71-2.15-5.88v-.65c-.54-.25-1.47-.7-2.58-.91-1.3-.25-2.05-.19-2.05-.19h-10.44c-1.08,0-2.01.18-2.81.48.13-.41.2-.84.2-1.29,0-2.32-1.88-4.2-4.2-4.2s-4.2,1.88-4.2,4.2c0,1.59.89,2.98,2.21,3.69h-2.24c-2.97,0-5.3,2.44-5.3,5.55v12.47s9.79,0,9.79,0h0s4.29.01,4.29.01v-14.36s1.59,0,1.59,0v14.36h12.56v-15.32s5.32,2.03,5.32,2.03ZM11.02,22.59v13.36s-4.55,0-4.55,0v-11.52h-2.25v11.52s-1.68,0-1.68,0v-11.18c-.01-2.43,1.71-4.26,4-4.26h4.79c-.21.67-.31,1.37-.31,2.08ZM10.77,18.43c-1.6,0-2.91-1.3-2.91-2.91s1.3-2.91,2.91-2.91,2.91,1.3,2.91,2.91c0,1.6-1.31,2.91-2.91,2.91Z"/>
</svg>