<?xml version="1.0" encoding="UTF-8"?>
<svg id="Layer_1" xmlns="http://www.w3.org/2000/svg" version="1.1" viewBox="0 0 72 69.32">
  <!-- Generator: Adobe Illustrator 29.3.1, SVG Export Plug-In . SVG Version: 2.1.0 Build 151)  -->
  <defs>
    <style>
      .st0 {
        fill: #fff;
      }
    </style>
  </defs>
  <path className="st0" d="M47.48,23.79c-.55,0-1,.45-1,1s.45,1,1,1h.81c.59,4.45,4.34,7.81,8.93,7.81s8.35-3.36,8.93-7.81h.81c.55,0,1-.45,1-1s-.45-1-1-1c-.16,0-3.23,0-3.13,0l-4.71-11.76c.55-.51.9-1.24.9-2.04,0-1.54-1.26-2.8-2.8-2.8-1.19,0-2.2.75-2.6,1.8h-8.84c-.48-2.75-2.87-4.84-5.75-4.84s-5.27,2.1-5.75,4.84h-8.94c-.4-1.05-1.42-1.8-2.61-1.8-1.54,0-2.8,1.25-2.8,2.8,0,.81.35,1.53.9,2.04l-4.71,11.76c-.32,0-3.3,0-3.13,0-.55,0-1,.45-1,1s.45,1,1,1h.81c.59,4.45,4.34,7.81,8.93,7.81s8.34-3.36,8.93-7.81h.81c.55,0,1-.45,1-1s-.45-1-1-1c-.16,0-3.23,0-3.13,0l-4.71-11.76c.31-.29.55-.64.71-1.04h8.94c.3,1.73,1.37,3.21,2.84,4.06v27.38h-2.55c-.46,0-.92-.16-1.28-.46l-1.11-.91c-3.52-2.87-7.96-4.45-12.51-4.46h-3.44v-.46c0-1.39-1.13-2.52-2.52-2.52h-7.15c-1.39,0-2.52,1.13-2.52,2.52v23.8c0,1.39,1.13,2.52,2.52,2.52h7.15c1.28,0,2.33-.97,2.49-2.21l10,3.5c4.22,1.48,8.65,2.1,12.78.38l25.86-11.33c2.61-1.14,3.79-4.18,2.65-6.78-1.13-2.57-4.15-3.76-6.73-2.67l-13.3,5.67c.02-.19.03-.37.03-.56,0-2.81-1.93-5.17-4.54-5.84V15.05c1.47-.85,2.54-2.32,2.84-4.06h8.84c.15.4.4.76.71,1.04l-4.71,11.76c-.32,0-3.3,0-3.13,0ZM27.19,23.79h-8.91l4.41-11.01s.03,0,.04,0,.03,0,.04,0l4.41,11.01ZM10.82,57.73c-1.01,0-1.83-.83-1.83-1.84s.82-1.83,1.83-1.83,1.83.82,1.83,1.83-.82,1.84-1.83,1.84ZM40.03,7.89c1.16,0,2.1.94,2.1,2.1s-.94,2.09-2.1,2.09-2.09-.94-2.09-2.09.93-2.1,2.09-2.1ZM45.48,48.47c0,2.13-1.71,4.03-4.03,4.03h-10.6s0,0,0,0c-.55,0-1,.45-1,1s.45,1,1,1h10.6s0,0,0,0c2.21,0,4.13-1.18,5.18-2.95l14.9-6.35c1.58-.67,3.42.06,4.11,1.63.7,1.59-.02,3.45-1.62,4.15l-25.85,11.33c-3.11,1.29-6.81,1.15-11.33-.43l-10.62-3.72v-19.55h3.43c4.09,0,8.08,1.43,11.25,4.01l1.11.91c.72.58,1.62.9,2.54.91h6.89c2.22,0,4.03,1.81,4.03,4.04ZM57.18,12.78s.03,0,.04,0,.03,0,.04,0l4.41,11.01h-8.91l4.41-11.01Z"/>
</svg>