<?xml version="1.0" encoding="UTF-8"?>
<svg id="Layer_1" xmlns="http://www.w3.org/2000/svg" version="1.1" viewBox="0 0 100 99.98">
  <!-- Generator: Adobe Illustrator 29.3.1, SVG Export Plug-In . SVG Version: 2.1.0 Build 151)  -->
  <defs>
    <style>
      .st0 {
        fill: #fff;
      }
    </style>
  </defs>
  <path className="st0" d="M80.03,35.2l-1.83,1.17c.18-1.28.28-2.59.28-3.91,0-15.7-12.77-28.46-28.46-28.46s-28.46,12.77-28.46,28.46c0,1.54.13,3.06.37,4.53l-1.92-1.23c-.46-.3-1.08-.16-1.38.3l-14.46,22.51c-.14.22-.19.49-.13.75s.21.49.44.63l12.69,8.14c.17.11.35.16.54.16.33,0,.65-.16.84-.46l1.56-2.42,2.69,1.7,1.56,8.94c.04.2.14.38.28.52-.38,1.51.11,3.16,1.38,4.18h.01l.02.03c.58.46,1.26.74,1.98.84l-.34.43c-.68.85-.98,1.92-.86,3,.12,1.08.66,2.05,1.5,2.71h.01v.02c.76.59,1.65.88,2.54.88.51,0,1.01-.12,1.48-.3.18.96.68,1.81,1.45,2.42h0c.75.6,1.64.89,2.52.89.8,0,1.58-.26,2.26-.71.24.77.7,1.45,1.33,1.95h0l.02.03c.73.58,1.61.88,2.52.88.16,0,.32,0,.47-.03.65-.07,1.25-.31,1.78-.67l2.26,1.84c.82.68,1.87,1.06,2.96,1.06,1.41,0,2.73-.63,3.63-1.72.64-.79.97-1.74,1.02-2.69.71.41,1.52.64,2.34.64,1.42,0,2.74-.63,3.63-1.72.71-.87,1.04-1.93,1.03-2.98.49.17,1,.26,1.51.26,1.41,0,2.73-.63,3.62-1.72.69-.84,1.03-1.87,1.03-2.94.52.2,1.08.31,1.64.31,1.4,0,2.72-.63,3.62-1.72.79-.97,1.16-2.19,1.03-3.43-.07-.64-.26-1.24-.56-1.79l4.44-10.24,2.05-1.3,1.47,2.29c.19.3.51.46.84.46.18,0,.37-.05.54-.16l12.69-8.14c.22-.14.38-.37.44-.63s0-.53-.13-.75l-14.44-22.51c-.3-.47-.92-.6-1.38-.3h.02ZM71.5,80.43c-.91,1.11-2.63,1.29-3.76.38l-10.17-8.3-.2-.16s-.02,0-.03-.02c-.21-.16-.46-.23-.7-.21-.25.03-.5.15-.67.36-.21.26-.25.58-.18.88.02.08.04.16.08.24.06.11.14.21.24.29l8.74,7.13c.55.45.9,1.09.97,1.8s-.14,1.41-.59,1.96c-.9,1.1-2.63,1.29-3.76.38l-1.4-1.14s-.08-.07-.12-.11l-9.46-7.71c-.43-.35-1.06-.28-1.41.14-.35.43-.28,1.06.14,1.41l9.46,7.71.03.03c1.11.94,1.27,2.62.35,3.73-.9,1.11-2.66,1.3-3.77.38l-6.04-4.94c-.25-.69-.68-1.33-1.3-1.82-.58-.46-1.25-.72-1.94-.82l-.24-.2c.17-.54.24-1.12.17-1.7-.12-1.08-.66-2.05-1.53-2.73-.67-.53-1.46-.81-2.25-.87.57-1.6.12-3.45-1.29-4.57-1.76-1.4-4.33-1.1-5.72.66l-.14.17c-.26-.68-.68-1.29-1.27-1.76-1.76-1.39-4.32-1.1-5.72.66l-1.95,2.46-1.37-7.87c-.05-.28-.21-.52-.45-.67l-3.05-1.92,9.23-14.38,6.07,2.96c.12.06.24.09.37.1l14.31.97-8.74,7.17c-.72.59-1.17,1.47-1.24,2.4-.06.93.27,1.86.91,2.54,1.68,1.79,4.38,2.26,6.56,1.14l6.5-3.33,6.8,5.79.02.04h0v.03s.05.04.06.06c0,.01.02.02.03.03h0c.05.07.09.14.16.19l8.9,7.27c.55.45.9,1.09.97,1.8.07.71-.14,1.41-.59,1.96h-.02ZM52.05,93.01c-.9,1.1-2.68,1.28-3.76.38l-2.12-1.73,2.44-3.07c.31-.39.53-.83.67-1.29l2.39,1.95c1.13.93,1.3,2.62.38,3.75h0ZM42.75,91.77c-.54.06-1.09-.09-1.52-.44h0c-.43-.35-.71-.85-.77-1.4s.09-1.09.44-1.52l2.9-3.66c.41-.51,1.01-.78,1.62-.78.46,0,.92.15,1.3.46.89.71,1.04,2.01.33,2.91l-2.9,3.66c-.34.43-.84.71-1.39.77ZM35.07,89.18h0c-.43-.35-.71-.85-.77-1.4s.09-1.09.44-1.52l5.52-6.96c.41-.51,1.01-.78,1.62-.78.46,0,.92.15,1.3.46.43.34.71.84.77,1.39s-.09,1.09-.44,1.52l-1.29,1.62h0l-2.9,3.66h0l-1.33,1.68c-.71.9-2.01,1.05-2.91.33ZM29.58,86.16c-.43-.34-.71-.84-.77-1.39-.06-.55.09-1.09.44-1.52l7.45-9.39c.41-.51,1.01-.78,1.62-.78.46,0,.92.15,1.3.46.89.71,1.04,2.02.33,2.91l-1.28,1.61h0l-5.52,6.96h0l-.65.82c-.71.9-2.01,1.05-2.91.33h-.01ZM27.28,79.16h-.01c-.9-.72-1.05-2.03-.34-2.92l2.63-3.31c.41-.51,1.01-.78,1.62-.78.46,0,.92.15,1.3.46.43.34.71.84.77,1.39s-.09,1.09-.43,1.52l-1.59,2-1.04,1.31c-.34.43-.84.71-1.39.77s-1.09-.09-1.52-.44ZM23.54,32.45c0-14.59,11.87-26.46,26.46-26.46s26.46,11.87,26.46,26.46c0,1.84-.19,3.64-.55,5.37l-8.58,5.51c-.22.14-.38.37-.44.63s0,.53.13.75l1,1.56-12.87,3.85c-.13.04-.25.1-.35.18l-1.43,1.17-16.23-1.1-5.68-2.77,1.5-2.33c.14-.22.19-.49.13-.75s-.21-.49-.44-.63l-8.43-5.41c-.45-1.94-.7-3.96-.7-6.03h.02ZM76.24,65.15l-4.2,9.69-5.23-4.27-10.88-9.26c-.19-.16-.42-.24-.65-.24-.16,0-.31.04-.46.11l-7.1,3.63c-1.4.71-3.12.41-4.19-.73-.27-.28-.4-.66-.37-1.04s.21-.74.51-.99l12.27-10.06,13.23-3.95,9.77,15.22-2.3,1.45c-.17.11-.3.26-.38.45h-.02Z"/>
  <path className="st0" d="M46.91,45.66c.2.2.45.29.71.29s.51-.1.71-.29l19.04-19.04c.19-.19.29-.44.29-.71s-.11-.52-.29-.71l-5.99-5.99c-.39-.39-1.02-.39-1.41,0l-12.35,12.35-6.43-6.43c-.39-.39-1.02-.39-1.41,0l-5.99,5.99c-.39.39-.39,1.02,0,1.41l13.13,13.13h0Z"/>
</svg>